<svg width="12" height="18" viewBox="0 0 12 18" fill="none" xmlns="http://www.w3.org/2000/svg">
<path d="M11.3841 9.18677C11.3841 8.83102 11.112 8.55897 10.7563 8.55897C10.4005 8.55897 10.1285 8.83102 10.1285 9.18677C10.1285 11.6352 8.14044 13.6232 5.69203 13.6232C3.24362 13.6232 1.25559 11.6352 1.25559 9.18677C1.25559 8.83102 0.983549 8.55897 0.627797 8.55897C0.272046 8.55897 0 8.83102 0 9.18677C0 12.0956 2.17636 14.544 5.06423 14.8579V16.532H2.78324C2.42748 16.532 2.15544 16.804 2.15544 17.1598C2.15544 17.5155 2.42748 17.7876 2.78324 17.7876H8.60083C8.95658 17.7876 9.22862 17.5155 9.22862 17.1598C9.22862 16.804 8.95658 16.532 8.60083 16.532H6.31983V14.8579C9.2077 14.544 11.3841 12.0956 11.3841 9.18677Z" fill="white"/>
<path d="M5.69201 0C3.76676 0 2.19727 1.56949 2.19727 3.49474V9.16584C2.19727 11.112 3.76676 12.6606 5.69201 12.6815C7.61725 12.6815 9.18675 11.112 9.18675 9.18677V3.49474C9.18675 1.56949 7.61725 0 5.69201 0Z" fill="white"/>
</svg>
