<svg width="18" height="19" viewBox="0 0 18 19" fill="none" xmlns="http://www.w3.org/2000/svg">
<path d="M2.47847 18.6923H15.5215C16.8888 18.6923 18 17.5811 18 16.2138V3.86306C18 2.49575 16.8888 1.38459 15.5215 1.38459H14.5385V0.692294C14.5385 0.311521 14.2269 0 13.8461 0C13.4653 0 13.1538 0.311521 13.1538 0.692294V1.38459H4.84618V0.692294C4.84618 0.311521 4.5346 0 4.15382 0C3.77305 0 3.46153 0.311521 3.46153 0.692294V1.38459H2.47847C1.11116 1.38459 0 2.49575 0 3.86306V16.2138C0 17.5811 1.11116 18.6923 2.47847 18.6923ZM1.38465 3.86306C1.38465 3.26077 1.87618 2.76924 2.47847 2.76924H3.46153V3.46153C3.46153 3.8423 3.77305 4.15382 4.15382 4.15382C4.5346 4.15382 4.84612 3.8423 4.84612 3.46153V2.76924H13.1538V3.46153C13.1538 3.8423 13.4653 4.15382 13.8461 4.15382C14.2269 4.15382 14.5384 3.8423 14.5384 3.46153V2.76924H15.5215C16.1238 2.76924 16.6153 3.26077 16.6153 3.86306V16.2138C16.6153 16.8161 16.1238 17.3076 15.5215 17.3076H2.47847C1.87618 17.3076 1.38465 16.8161 1.38465 16.2138V3.86306Z" fill="white"/>
<path d="M5.0193 7.96154C5.49723 7.96154 5.88467 7.5741 5.88467 7.09617C5.88467 6.61824 5.49723 6.2308 5.0193 6.2308C4.54137 6.2308 4.15393 6.61824 4.15393 7.09617C4.15393 7.5741 4.54137 7.96154 5.0193 7.96154Z" fill="white"/>
<path d="M8.82692 7.96154C9.30485 7.96154 9.69228 7.5741 9.69228 7.09617C9.69228 6.61824 9.30485 6.2308 8.82692 6.2308C8.34899 6.2308 7.96155 6.61824 7.96155 7.09617C7.96155 7.5741 8.34899 7.96154 8.82692 7.96154Z" fill="white"/>
<path d="M12.6347 7.96154C13.1126 7.96154 13.5 7.5741 13.5 7.09617C13.5 6.61824 13.1126 6.2308 12.6347 6.2308C12.1567 6.2308 11.7693 6.61824 11.7693 7.09617C11.7693 7.5741 12.1567 7.96154 12.6347 7.96154Z" fill="white"/>
<path d="M5.0193 11.4231C5.49723 11.4231 5.88467 11.0356 5.88467 10.5577C5.88467 10.0798 5.49723 9.69232 5.0193 9.69232C4.54137 9.69232 4.15393 10.0798 4.15393 10.5577C4.15393 11.0356 4.54137 11.4231 5.0193 11.4231Z" fill="white"/>
<path d="M8.82692 11.4231C9.30485 11.4231 9.69228 11.0356 9.69228 10.5577C9.69228 10.0798 9.30485 9.69232 8.82692 9.69232C8.34899 9.69232 7.96155 10.0798 7.96155 10.5577C7.96155 11.0356 8.34899 11.4231 8.82692 11.4231Z" fill="white"/>
<path d="M12.6347 11.4231C13.1126 11.4231 13.5 11.0356 13.5 10.5577C13.5 10.0798 13.1126 9.69232 12.6347 9.69232C12.1567 9.69232 11.7693 10.0798 11.7693 10.5577C11.7693 11.0356 12.1567 11.4231 12.6347 11.4231Z" fill="white"/>
<path d="M5.0193 14.8846C5.49723 14.8846 5.88467 14.4971 5.88467 14.0192C5.88467 13.5413 5.49723 13.1538 5.0193 13.1538C4.54137 13.1538 4.15393 13.5413 4.15393 14.0192C4.15393 14.4971 4.54137 14.8846 5.0193 14.8846Z" fill="white"/>
<path d="M8.82692 14.8846C9.30485 14.8846 9.69228 14.4971 9.69228 14.0192C9.69228 13.5413 9.30485 13.1538 8.82692 13.1538C8.34899 13.1538 7.96155 13.5413 7.96155 14.0192C7.96155 14.4971 8.34899 14.8846 8.82692 14.8846Z" fill="white"/>
<path d="M12.6347 14.8846C13.1126 14.8846 13.5 14.4971 13.5 14.0192C13.5 13.5413 13.1126 13.1538 12.6347 13.1538C12.1567 13.1538 11.7693 13.5413 11.7693 14.0192C11.7693 14.4971 12.1567 14.8846 12.6347 14.8846Z" fill="white"/>
</svg>
