<svg width="18" height="17" viewBox="0 0 18 17" fill="none" xmlns="http://www.w3.org/2000/svg">
<path d="M17.4 16.8H0.6C0.44087 16.8 0.288258 16.7368 0.175736 16.6243C0.0632141 16.5117 0 16.3591 0 16.2V0.6C0 0.44087 0.0632141 0.288258 0.175736 0.175736C0.288258 0.0632141 0.44087 0 0.6 0H17.4C17.5591 0 17.7117 0.0632141 17.8243 0.175736C17.9368 0.288258 18 0.44087 18 0.6V16.2C18 16.3591 17.9368 16.5117 17.8243 16.6243C17.7117 16.7368 17.5591 16.8 17.4 16.8ZM1.2 15.6H16.8V1.2H1.2V15.6Z" fill="white"/>
<path d="M6.6 12.6C6.49693 12.5997 6.39567 12.5728 6.306 12.522C6.21332 12.4699 6.13615 12.3941 6.08238 12.3024C6.02861 12.2107 6.00018 12.1063 6 12V4.8C6.00002 4.6941 6.02807 4.59009 6.0813 4.49853C6.13452 4.40698 6.21104 4.33114 6.30306 4.27873C6.39508 4.22632 6.49934 4.1992 6.60524 4.20013C6.71114 4.20105 6.81491 4.22999 6.906 4.284L12.906 7.884C12.9955 7.93713 13.0697 8.01263 13.1212 8.1031C13.1727 8.19357 13.1998 8.29589 13.1998 8.4C13.1998 8.50411 13.1727 8.60643 13.1212 8.6969C13.0697 8.78736 12.9955 8.86287 12.906 8.916L6.906 12.516C6.81339 12.571 6.70769 12.6 6.6 12.6ZM7.2 5.862V10.938L11.436 8.4L7.2 5.862Z" fill="white"/>
</svg>
