<svg width="16" height="16" viewBox="0 0 16 16" fill="none" xmlns="http://www.w3.org/2000/svg">
<path d="M0.766669 3.06667H9.20002C9.20002 3.47334 9.36157 3.86335 9.64913 4.15091C9.93668 4.43846 10.3267 4.60001 10.7334 4.60001H12.2667C12.6734 4.60001 13.0634 4.43846 13.3509 4.15091C13.6385 3.86335 13.8 3.47334 13.8 3.06667H14.5667C14.77 3.06667 14.965 2.9859 15.1088 2.84212C15.2526 2.69834 15.3334 2.50334 15.3334 2.30001C15.3334 2.09667 15.2526 1.90167 15.1088 1.75789C14.965 1.61411 14.77 1.53334 14.5667 1.53334H13.8C13.8 1.12667 13.6385 0.736661 13.3509 0.449104C13.0634 0.161548 12.6734 0 12.2667 0H10.7334C10.3267 0 9.93668 0.161548 9.64913 0.449104C9.36157 0.736661 9.20002 1.12667 9.20002 1.53334H0.766669C0.563335 1.53334 0.36833 1.61411 0.224552 1.75789C0.0807738 1.90167 0 2.09667 0 2.30001C0 2.50334 0.0807738 2.69834 0.224552 2.84212C0.36833 2.9859 0.563335 3.06667 0.766669 3.06667ZM10.7334 1.53334H12.2667V2.30001V3.06667H10.7334V1.53334ZM14.5667 6.90002H7.66669C7.66669 6.49335 7.50514 6.10334 7.21758 5.81578C6.93003 5.52823 6.54002 5.36668 6.13335 5.36668H4.60001C4.19335 5.36668 3.80334 5.52823 3.51578 5.81578C3.22822 6.10334 3.06667 6.49335 3.06667 6.90002H0.766669C0.563335 6.90002 0.36833 6.98079 0.224552 7.12457C0.0807738 7.26835 0 7.46335 0 7.66669C0 7.87002 0.0807738 8.06503 0.224552 8.2088C0.36833 8.35258 0.563335 8.43336 0.766669 8.43336H3.06667C3.06667 8.84002 3.22822 9.23003 3.51578 9.51759C3.80334 9.80515 4.19335 9.96669 4.60001 9.96669H6.13335C6.54002 9.96669 6.93003 9.80515 7.21758 9.51759C7.50514 9.23003 7.66669 8.84002 7.66669 8.43336H14.5667C14.77 8.43336 14.965 8.35258 15.1088 8.2088C15.2526 8.06503 15.3334 7.87002 15.3334 7.66669C15.3334 7.46335 15.2526 7.26835 15.1088 7.12457C14.965 6.98079 14.77 6.90002 14.5667 6.90002ZM4.60001 8.43336V6.90002H6.13335V7.66669V8.43336H4.60001ZM14.5667 12.2667H12.2667C12.2667 11.86 12.1052 11.47 11.8176 11.1825C11.53 10.8949 11.14 10.7334 10.7334 10.7334H9.20002C8.79336 10.7334 8.40335 10.8949 8.11579 11.1825C7.82823 11.47 7.66669 11.86 7.66669 12.2667H0.766669C0.563335 12.2667 0.36833 12.3475 0.224552 12.4913C0.0807738 12.635 0 12.83 0 13.0334C0 13.2367 0.0807738 13.4317 0.224552 13.5755C0.36833 13.7193 0.563335 13.8 0.766669 13.8H7.66669C7.66669 14.2067 7.82823 14.5967 8.11579 14.8843C8.40335 15.1718 8.79336 15.3334 9.20002 15.3334H10.7334C11.14 15.3334 11.53 15.1718 11.8176 14.8843C12.1052 14.5967 12.2667 14.2067 12.2667 13.8H14.5667C14.77 13.8 14.965 13.7193 15.1088 13.5755C15.2526 13.4317 15.3334 13.2367 15.3334 13.0334C15.3334 12.83 15.2526 12.635 15.1088 12.4913C14.965 12.3475 14.77 12.2667 14.5667 12.2667ZM9.20002 13.8V12.2667H10.7334V13.0334V13.8H9.20002Z" fill="#999999"/>
</svg>
