<svg width="19" height="18" viewBox="0 0 19 18" fill="none" xmlns="http://www.w3.org/2000/svg">
<path d="M19 8.983C19.0097 13.9417 14.7411 17.9965 9.50689 18C7.24623 18.0015 5.16972 17.255 3.5379 16.0073C3.11358 15.6828 3.08187 15.0804 3.46746 14.7151L3.89906 14.3062C4.22884 13.9938 4.75532 13.9596 5.12069 14.2342C6.32293 15.138 7.84443 15.6774 9.49999 15.6774C13.3959 15.6774 16.5484 12.6904 16.5484 9.00002C16.5484 5.3091 13.3953 2.32259 9.49999 2.32259C7.6301 2.32259 5.93179 3.01098 4.67078 4.13464L6.61498 5.97652C7.00111 6.34233 6.72764 6.96776 6.18162 6.96776H0.612903C0.274389 6.96776 0 6.70781 0 6.38711V1.11147C0 0.594183 0.660173 0.335105 1.0463 0.700876L2.93757 2.49261C4.64308 0.948486 6.95461 0 9.49999 0C14.7407 0 18.9903 4.02025 19 8.983ZM12.0699 11.8421L12.4462 11.3838C12.7579 11.004 12.6857 10.4568 12.2849 10.1615L10.7258 9.01268V5.22582C10.7258 4.74479 10.3142 4.35485 9.80644 4.35485H9.19354C8.68579 4.35485 8.27419 4.74479 8.27419 5.22582V10.1486L10.7798 11.9949C11.1806 12.2902 11.7582 12.2218 12.0699 11.8421Z" fill="#999999"/>
</svg>
