<svg width="19" height="18" viewBox="0 0 19 18" fill="none" xmlns="http://www.w3.org/2000/svg">
<path d="M18.6068 8.85253L9.97405 0.197127C9.91189 0.134638 9.83806 0.085062 9.75679 0.0512365C9.67551 0.017411 9.58838 0 9.50039 0C9.4124 0 9.32527 0.017411 9.244 0.0512365C9.16272 0.085062 9.08889 0.134638 9.02674 0.197127L0.394016 8.85253C0.142516 9.10487 0 9.44764 0 9.80513C0 10.5474 0.601503 11.151 1.34133 11.151H2.25092V17.3271C2.25092 17.6993 2.55062 18 2.92159 18H8.15906V13.2896H10.5064V18H16.0792C16.4502 18 16.7499 17.6993 16.7499 17.3271V11.151H17.6595C18.0157 11.151 18.3574 11.0101 18.6089 10.7556C19.1307 10.2299 19.1307 9.37824 18.6068 8.85253Z" fill="white"/>
</svg>
