<svg width="22" height="14" viewBox="0 0 22 14" fill="none" xmlns="http://www.w3.org/2000/svg">
<path d="M17.6 2C17.6 1.46957 17.3682 0.960859 16.9556 0.585786C16.5431 0.210714 15.9835 0 15.4 0H2.2C1.61652 0 1.05694 0.210714 0.644365 0.585786C0.231785 0.960859 0 1.46957 0 2V12C0 12.5304 0.231785 13.0391 0.644365 13.4142C1.05694 13.7893 1.61652 14 2.2 14H15.4C15.9835 14 16.5431 13.7893 16.9556 13.4142C17.3682 13.0391 17.6 12.5304 17.6 12V8.667L22 12V2L17.6 5.333V2ZM13.2 8H9.9V11H7.7V8H4.4V6H7.7V3H9.9V6H13.2V8Z" fill="#999999"/>
</svg>
